<svg xmlns="http://www.w3.org/2000/svg" width="48" height="48" viewBox="0 0 48 48">
  <style>
    @keyframes wave {
      0%, 100% { transform: rotate(0deg); }
      15% { transform: rotate(14deg); }
      30% { transform: rotate(-8deg); }
      45% { transform: rotate(14deg); }
      60% { transform: rotate(-4deg); }
      75% { transform: rotate(8deg); }
    }
    .hand {
      animation: wave 1.6s ease-in-out infinite;
      transform-box: fill-box;
      transform-origin: 70% 70%;
    }
  </style>
  <g class="hand">
    <path fill="#f2cc60" d="M17.2 40.7c-2.6-1.5-4.6-3.7-6.2-6.6L6.6 26c-.7-1.3-.3-2.9.9-3.6 1.2-.7 2.8-.3 3.6 1l2 3.5V11.3c0-1.5 1.2-2.7 2.7-2.7s2.7 1.2 2.7 2.7v10.5h1.1V8.7c0-1.5 1.2-2.7 2.7-2.7s2.7 1.2 2.7 2.7v13.1h1.1V10.6c0-1.5 1.2-2.7 2.7-2.7s2.7 1.2 2.7 2.7v12.1h1.1v-8.1c0-1.5 1.2-2.7 2.7-2.7s2.7 1.2 2.7 2.7v15.1c0 8.2-5.4 13.6-13.1 13.6-3.6 0-6.3-.8-8.2-2.6Z"/>
    <path fill="#d29922" d="M13.1 26.9V32h1.7V11.3c0-.6.4-1 1-1s1 .4 1 1v16.1h1.7v-5.6h1.1V8.7c0-.6.4-1 1-1s1 .4 1 1v18.7h1.7v-5.6h1.1V10.6c0-.6.4-1 1-1s1 .4 1 1v16.8h1.7v-4.7h1.1v-8.1c0-.6.4-1 1-1s1 .4 1 1v10.2h1.7V14.6c0-2.4-1.9-4.4-4.4-4.4-.6 0-1.2.1-1.7.3-.1-2.4-2-4.3-4.4-4.3-1 0-1.9.3-2.6.8-.8-1.2-2.1-2-3.7-2-2.4 0-4.4 2-4.4 4.4v11.1c-1.2-.4-2.5-.2-3.6.4-2 1.2-2.7 3.8-1.6 5.9l4.4 8.1c1.7 3.2 4 5.7 7 7.4 2.2 1.2 5.2 1.9 9 1.9v-1.7c-3.4 0-6.1-.6-8.1-1.7-2.7-1.5-4.7-3.7-6.2-6.6l-4.4-8.1c-.5-.9-.2-1.9.6-2.4.8-.5 1.9-.2 2.4.7l3.6 6.4Z" opacity=".55"/>
  </g>
</svg>
